<svg xmlns="http://www.w3.org/2000/svg" width="39" height="38" viewBox="0 0 39 38" fill="none">
  <g clip-path="url(#clip0_133_8)">
    <path d="M38.025 18.8021C38.025 8.43952 29.7321 0.0410156 19.5 0.0410156C9.26781 0.0410156 0.974976 8.43952 0.974976 18.8021C0.974976 28.1679 7.74818 35.9289 16.6054 37.3359V24.2252H11.9018V18.8021H16.6054V14.6688C16.6054 9.96752 19.3697 7.36955 23.603 7.36955C25.6291 7.36955 27.7494 7.73598 27.7494 7.73598V12.353H25.4121C23.1109 12.353 22.3945 13.8003 22.3945 15.2844V18.8021H27.5323L26.711 24.2252H22.3945V37.3359C31.2518 35.9289 38.025 28.1679 38.025 18.8021Z" fill="white"/>
  </g>
  <defs>
    <clipPath id="clip0_133_8">
      <rect width="37.05" height="37.2949" fill="white" transform="translate(0.974976 0.0410156)"/>
    </clipPath>
  </defs>
</svg>