<svg xmlns="http://www.w3.org/2000/svg" width="31" height="32" viewBox="0 0 31 32" fill="none">
  <g clip-path="url(#clip0_7_790)">
    <path fill-rule="evenodd" clip-rule="evenodd" d="M15.5004 0.958496C11.8355 0.960398 8.29087 2.25841 5.50021 4.62043C2.70954 6.98245 0.854852 10.2545 0.267766 13.8514C-0.319321 17.4483 0.399476 21.1356 2.29564 24.2539C4.19181 27.3722 7.14169 29.7183 10.6178 30.8725C11.3847 31.0148 11.6736 30.5395 11.6736 30.1354C11.6736 29.7312 11.6582 28.5595 11.6531 27.2784C7.35853 28.2062 6.45105 25.4662 6.45105 25.4662C5.75063 23.6869 4.73833 23.2192 4.73833 23.2192C3.33747 22.2686 4.84314 22.2864 4.84314 22.2864C6.39482 22.3957 7.21028 23.8699 7.21028 23.8699C8.58557 26.216 10.8223 25.5373 11.7017 25.1408C11.8397 24.147 12.2411 23.4709 12.6833 23.0871C9.25276 22.7007 5.64837 21.3841 5.64837 15.5025C5.62711 13.9771 6.19638 12.502 7.2384 11.3823C7.07991 10.9959 6.55074 9.43527 7.38921 7.31544C7.38921 7.31544 8.68527 6.90368 11.6352 8.88879C14.1655 8.20077 16.8352 8.20077 19.3655 8.88879C22.3129 6.90368 23.6064 7.31544 23.6064 7.31544C24.4474 9.43019 23.9183 10.9908 23.7598 11.3823C24.8051 12.5021 25.3755 13.9798 25.3523 15.5075C25.3523 21.4019 21.7403 22.7007 18.3046 23.0794C18.8568 23.5573 19.3502 24.4901 19.3502 25.9237C19.3502 27.9774 19.3323 29.6296 19.3323 30.1354C19.3323 30.5446 19.6109 31.0224 20.3931 30.8725C23.8697 29.7181 26.8198 27.3717 28.716 24.2528C30.6121 21.134 31.3305 17.4461 30.7428 13.8489C30.155 10.2516 28.2994 6.97958 25.5078 4.61796C22.7162 2.25635 19.1707 0.959192 15.5055 0.958496H15.5004Z" fill="#25242B"/>
    <path d="M10.39 26.0128C10.39 26.1373 10.2469 26.2441 10.0628 26.2466C9.87876 26.2492 9.72794 26.1475 9.72794 26.023C9.72794 25.8984 9.87108 25.7917 10.0551 25.7891C10.2392 25.7866 10.39 25.8857 10.39 26.0128Z" fill="#25242B"/>
    <path d="M11.5659 25.8171C11.5889 25.9416 11.4611 26.0712 11.277 26.1017C11.093 26.1323 10.9319 26.0585 10.9089 25.9365C10.8859 25.8145 11.0189 25.6824 11.1978 25.6493C11.3767 25.6163 11.5429 25.6925 11.5659 25.8171Z" fill="#25242B"/>
    <path d="M9.12715 25.9263C9.08881 26.0457 8.91497 26.0991 8.74115 26.0483C8.56732 25.9975 8.45228 25.8551 8.48552 25.7331C8.51875 25.6111 8.69514 25.5552 8.87152 25.6111C9.0479 25.667 9.16038 25.8017 9.12715 25.9263Z" fill="#25242B"/>
    <path d="M7.96916 25.4281C7.88481 25.5221 7.71354 25.4967 7.57294 25.3696C7.43234 25.2425 7.3991 25.0697 7.48346 24.9782C7.56782 24.8867 7.73909 24.9121 7.8848 25.0366C8.03051 25.1612 8.05863 25.3366 7.96916 25.4281Z" fill="#25242B"/>
    <path d="M7.14352 24.5743C7.04894 24.6404 6.88789 24.5743 6.79841 24.4422C6.77367 24.4185 6.754 24.39 6.74056 24.3586C6.72712 24.3271 6.72018 24.2933 6.72018 24.2592C6.72018 24.225 6.72712 24.1912 6.74056 24.1597C6.754 24.1283 6.77367 24.0999 6.79841 24.0761C6.893 24.0126 7.05405 24.0761 7.14352 24.2058C7.23299 24.3354 7.23555 24.5082 7.14352 24.5743Z" fill="#25242B"/>
    <path d="M6.53507 23.6923C6.48213 23.7188 6.42156 23.7262 6.36374 23.7133C6.30591 23.7003 6.25443 23.6677 6.21809 23.6211C6.11839 23.5144 6.09793 23.367 6.17462 23.3009C6.25131 23.2348 6.38936 23.2653 6.48906 23.3721C6.58875 23.4788 6.61176 23.6262 6.53507 23.6923Z" fill="#25242B"/>
    <path d="M5.90876 22.9984C5.87553 23.0746 5.75282 23.0975 5.65313 23.0441C5.55343 22.9907 5.47931 22.8916 5.51509 22.8128C5.55088 22.734 5.67103 22.7137 5.77072 22.7671C5.87042 22.8204 5.9471 22.9221 5.90876 22.9984Z" fill="#25242B"/>
  </g>
  <defs>
    <clipPath id="clip0_7_790">
      <rect width="30.875" height="30.875" fill="white" transform="translate(0.0625305 0.31543)"/>
    </clipPath>
  </defs>
</svg>