<svg xmlns="http://www.w3.org/2000/svg" width="29" height="34" viewBox="0 0 29 34" fill="none">
  <path d="M0 8.35678L7.22192 12.5352V20.8404L0 16.7136V8.35678Z" fill="#E6E6E6"/>
  <path d="M21.6141 12.4836L28.7329 16.6104L28.6297 24.9672L21.5626 20.6341L21.6141 12.4836Z" fill="#E6E6E6"/>
  <path d="M0 16.6104L14.3922 24.9672L7.22192 29.094L0 24.9672V16.6104Z" fill="#808080"/>
  <path d="M28.7329 16.6104L14.3407 8.25359L21.511 4.12678L28.7329 8.25359V16.6104Z" fill="#808080"/>
  <path d="M14.3922 0.0515747L7.22192 12.5352L0 8.35678L14.3922 0.0515747Z" fill="white"/>
  <path d="M7.22191 12.4836L14.3922 1.33514e-05L21.511 4.07524L7.22191 12.4836Z" fill="#333333"/>
  <path d="M14.3407 33.2208L21.5626 20.6341L28.6298 24.9672L14.3407 33.2208Z" fill="white"/>
  <path d="M21.5626 20.634L14.3407 33.2208L7.22192 29.094L21.5626 20.634Z" fill="#333333"/>
</svg>