<svg xmlns="http://www.w3.org/2000/svg" width="39" height="38" viewBox="0 0 39 38" fill="none">
  <g clip-path="url(#clip0_133_13)">
    <path d="M19.5 3.40185C24.4493 3.40185 25.0303 3.42406 26.9865 3.51289C28.7956 3.59432 29.7737 3.89783 30.4282 4.15693C31.296 4.49746 31.9137 4.8972 32.5609 5.54864C33.2081 6.20008 33.6125 6.82191 33.9435 7.69543C34.1935 8.35427 34.5024 9.33884 34.5833 11.1599C34.6715 13.129 34.6936 13.7138 34.6936 18.6959C34.6936 23.6779 34.6715 24.2627 34.5833 26.2319C34.5024 28.0529 34.2009 29.0375 33.9435 29.6963C33.6052 30.5699 33.2081 31.1917 32.5609 31.8431C31.9137 32.4946 31.296 32.9017 30.4282 33.2348C29.7737 33.4865 28.7956 33.7974 26.9865 33.8789C25.0303 33.9677 24.4493 33.9899 19.5 33.9899C14.5507 33.9899 13.9697 33.9677 12.0135 33.8789C10.2044 33.7974 9.22629 33.4939 8.57178 33.2348C7.70399 32.8943 7.08625 32.4946 6.43908 31.8431C5.79192 31.1917 5.38745 30.5699 5.05651 29.6963C4.80647 29.0375 4.4976 28.0529 4.4167 26.2319C4.32845 24.2627 4.30639 23.6779 4.30639 18.6959C4.30639 13.7138 4.32845 13.129 4.4167 11.1599C4.4976 9.33884 4.79912 8.35427 5.05651 7.69543C5.3948 6.82191 5.79192 6.20008 6.43908 5.54864C7.08625 4.8972 7.70399 4.49005 8.57178 4.15693C9.22629 3.90524 10.2044 3.59432 12.0135 3.51289C13.9697 3.41666 14.558 3.40185 19.5 3.40185ZM19.5 0.0410156C14.4698 0.0410156 13.8373 0.0632238 11.8591 0.152056C9.88816 0.240889 8.54236 0.559206 7.3657 1.01818C6.14492 1.49195 5.11534 2.13599 4.08577 3.17237C3.05619 4.20875 2.42374 5.25253 1.94572 6.47398C1.48976 7.65842 1.17354 9.01312 1.08529 11.0045C0.997038 12.9884 0.974976 13.625 0.974976 18.6885C0.974976 23.7519 0.997038 24.3886 1.08529 26.3799C1.17354 28.3638 1.48976 29.7185 1.94572 30.9104C2.41638 32.1392 3.05619 33.1756 4.08577 34.212C5.11534 35.2484 6.15227 35.885 7.3657 36.3662C8.54236 36.8252 9.88817 37.1435 11.8664 37.2323C13.8447 37.3211 14.4698 37.3433 19.5073 37.3433C24.5449 37.3433 25.17 37.3211 27.1483 37.2323C29.1192 37.1435 30.465 36.8252 31.649 36.3662C32.8698 35.8924 33.8994 35.2484 34.9289 34.212C35.9585 33.1756 36.591 32.1318 37.069 30.9104C37.5249 29.7259 37.8412 28.3712 37.9294 26.3799C38.0177 24.3886 38.0397 23.7593 38.0397 18.6885C38.0397 13.6176 38.0177 12.9884 37.9294 10.997C37.8412 9.01312 37.5249 7.65842 37.069 6.46658C36.5983 5.23773 35.9585 4.20135 34.9289 3.16497C33.8994 2.12858 32.8624 1.49195 31.649 1.01077C30.4723 0.551804 29.1265 0.233486 27.1483 0.144654C25.1627 0.0632238 24.5302 0.0410156 19.5 0.0410156Z" fill="white"/>
    <path d="M19.4999 9.1167C14.2491 9.1167 9.9837 13.4029 9.9837 18.6958C9.9837 23.9888 14.2417 28.2749 19.4999 28.2749C24.7581 28.2749 29.0161 23.9888 29.0161 18.6958C29.0161 13.4029 24.7581 9.1167 19.4999 9.1167ZM19.4999 24.9067C16.0876 24.9067 13.3225 22.1233 13.3225 18.6884C13.3225 15.2536 16.0876 12.4701 19.4999 12.4701C22.9122 12.4701 25.6774 15.2536 25.6774 18.6884C25.6774 22.1233 22.9122 24.9067 19.4999 24.9067Z" fill="white"/>
    <path d="M29.391 10.9673C30.6176 10.9673 31.6119 9.96642 31.6119 8.73172C31.6119 7.49702 30.6176 6.49609 29.391 6.49609C28.1644 6.49609 27.17 7.49702 27.17 8.73172C27.17 9.96642 28.1644 10.9673 29.391 10.9673Z" fill="white"/>
  </g>
  <defs>
    <clipPath id="clip0_133_13">
      <rect width="37.05" height="37.2949" fill="white" transform="translate(0.974976 0.0410156)"/>
    </clipPath>
  </defs>
</svg>