<svg xmlns="http://www.w3.org/2000/svg" width="62" height="62" viewBox="0 0 62 62" fill="none">
  <rect width="62" height="62" rx="10" fill="#373737"/>
  <path d="M18.6653 21.7295L29.3116 31.277C29.6509 31.5811 30.0893 31.7491 30.5435 31.7491C30.9978 31.7491 31.4362 31.5811 31.7754 31.277L42.4236 21.7295H18.6653ZM45.345 24.1033L34.2411 34.0629C33.2231 34.9762 31.9071 35.4808 30.5435 35.4808C29.1799 35.4808 27.8639 34.9762 26.8459 34.0629L15.705 24.0679V40.377H45.345V24.1033ZM15.705 18H45.345C46.3276 18 47.27 18.3929 47.9648 19.0923C48.6596 19.7918 49.05 20.7404 49.05 21.7295V40.377C49.05 41.3661 48.6596 42.3147 47.9648 43.0141C47.27 43.7135 46.3276 44.1064 45.345 44.1064H15.705C14.7224 44.1064 13.78 43.7135 13.0852 43.0141C12.3903 42.3147 12 41.3661 12 40.377V21.7295C12 20.7404 12.3903 19.7918 13.0852 19.0923C13.78 18.3929 14.7224 18 15.705 18Z" fill="white"/>
</svg>