<svg width="210" height="72" viewBox="0 0 210 72" fill="none" xmlns="http://www.w3.org/2000/svg">
<path d="M0 18.0322L15.5835 27.0484V44.9694L0 36.0645V18.0322Z" fill="#E6E6E6"/>
<path d="M46.6391 26.937L62 35.8419L61.7774 53.8742L46.5278 44.5241L46.6391 26.937Z" fill="#E6E6E6"/>
<path d="M0 35.8418L31.0556 53.8741L15.5835 62.779L0 53.8741V35.8418Z" fill="#808080"/>
<path d="M62 35.8418L30.9444 17.8095L46.4165 8.90464L62 17.8095V35.8418Z" fill="#808080"/>
<path d="M31.0556 0.111328L15.5835 27.0485L0 18.0323L31.0556 0.111328Z" fill="white"/>
<path d="M15.5835 26.937L31.0556 -0.000144958L46.4165 8.79339L15.5835 26.937Z" fill="#333333"/>
<path d="M30.9443 71.6841L46.5277 44.5243L61.7773 53.8744L30.9443 71.6841Z" fill="white"/>
<path d="M46.5278 44.5244L30.9444 71.6842L15.5835 62.7793L46.5278 44.5244Z" fill="#333333"/>
<path d="M90.95 17V31.55H104.95V17H112.3V54H104.95V38H90.95V54H83.55V17H90.95ZM132.942 54.7C131.008 54.7 129.192 54.3667 127.492 53.7C125.792 53.0333 124.308 52.0833 123.042 50.85C121.808 49.5833 120.825 48.05 120.092 46.25C119.392 44.4167 119.042 42.35 119.042 40.05C119.042 37.7833 119.408 35.75 120.142 33.95C120.875 32.1167 121.842 30.5667 123.042 29.3C124.275 28 125.675 27.0167 127.242 26.35C128.808 25.65 130.425 25.3 132.092 25.3C134.025 25.3 135.708 25.6333 137.142 26.3C138.608 26.9667 139.825 27.9 140.792 29.1C141.792 30.3 142.542 31.7167 143.042 33.35C143.542 34.9833 143.792 36.7667 143.792 38.7C143.792 39.3667 143.758 40.0167 143.692 40.65C143.625 41.25 143.542 41.7167 143.442 42.05H126.192C126.492 44.35 127.325 46.1 128.692 47.3C130.092 48.4667 131.842 49.05 133.942 49.05C135.108 49.05 136.192 48.8833 137.192 48.55C138.225 48.2167 139.242 47.7333 140.242 47.1L142.742 51.6C141.342 52.5667 139.808 53.3333 138.142 53.9C136.475 54.4333 134.742 54.7 132.942 54.7ZM137.492 37.2C137.492 35.3 137.058 33.8 136.192 32.7C135.325 31.5667 133.992 31 132.192 31C130.725 31 129.408 31.5333 128.242 32.6C127.075 33.6333 126.358 35.1667 126.092 37.2H137.492ZM147.245 17H155.445L159.145 24.6C159.578 25.4667 159.995 26.3667 160.395 27.3C160.828 28.2333 161.328 29.2833 161.895 30.45H162.145C162.611 29.2833 163.028 28.2333 163.395 27.3C163.795 26.3667 164.195 25.4667 164.595 24.6L168.095 17H175.895L166.145 35.25L176.545 54H168.345L164.195 45.8C163.728 44.8333 163.261 43.8667 162.795 42.9C162.361 41.9 161.861 40.8333 161.295 39.7H161.095C160.628 40.8333 160.178 41.9 159.745 42.9C159.311 43.8667 158.861 44.8333 158.395 45.8L154.445 54H146.595L156.995 34.9L147.245 17ZM187.142 44.5L184.542 54H177.042L188.892 17H197.592L209.492 54H201.742L199.142 44.5H187.142ZM196.442 34.7C195.876 32.7667 195.326 30.7667 194.792 28.7C194.292 26.6333 193.759 24.6 193.192 22.6H192.992C192.526 24.6333 192.026 26.6833 191.492 28.75C190.959 30.7833 190.409 32.7667 189.842 34.7L188.742 38.75H197.542L196.442 34.7Z" fill="white"/>
</svg>
