<svg width="1878" height="1049" viewBox="0 0 1878 1049" fill="none" xmlns="http://www.w3.org/2000/svg">
<rect width="1878" height="1049" fill="#D9D9D9"/>
<path d="M771 454.656L832.925 490.484V561.697L771 526.312V454.656Z" fill="#E6E6E6"/>
<path d="M956.332 490.042L1017.37 525.427L1016.49 597.083L955.89 559.928L956.332 490.042Z" fill="#E6E6E6"/>
<path d="M771 525.427L894.407 597.083L832.925 632.469L771 597.083V525.427Z" fill="#808080"/>
<path d="M1017.37 525.427L893.966 453.771L955.448 418.386L1017.37 453.771V525.427Z" fill="#808080"/>
<path d="M894.407 383.442L832.925 490.484L771 454.656L894.407 383.442Z" fill="white"/>
<path d="M832.925 490.042L894.408 383L955.448 417.943L832.925 490.042Z" fill="#333333"/>
<path d="M893.964 667.854L955.889 559.928L1016.49 597.083L893.964 667.854Z" fill="white"/>
<path d="M955.89 559.928L893.965 667.854L832.925 632.469L955.89 559.928Z" fill="#333333"/>
</svg>
